<?xml version="1.0" standalone="no"?>
<!DOCTYPE svg PUBLIC "-//W3C//DTD SVG 20010904//EN"
 "http://www.w3.org/TR/2001/REC-SVG-20010904/DTD/svg10.dtd">
<svg version="1.0" xmlns="http://www.w3.org/2000/svg"
 width="118.000000pt" height="118.000000pt" viewBox="0 0 118.000000 118.000000"
 preserveAspectRatio="xMidYMid meet">
<metadata>
Created by potrace 1.14, written by Peter Selinger 2001-2017
</metadata>
<g transform="translate(0.000000,118.000000) scale(0.100000,-0.100000)"
fill="#000000" stroke="none">
<path d="M200 1171 c-78 -24 -141 -78 -177 -151 -16 -31 -18 -76 -20 -421 l-3
-386 31 -62 c37 -74 97 -123 173 -141 36 -8 158 -11 416 -8 362 3 365 3 410
27 53 28 100 76 126 129 18 34 19 67 19 432 l0 395 -27 52 c-30 57 -69 91
-138 122 -42 19 -66 20 -415 20 -203 0 -381 -4 -395 -8z"/>
</g>
</svg>
